<?xml version="1.0" encoding="UTF-8"?>
<!DOCTYPE svg PUBLIC "-//W3C//DTD SVG 1.1//EN" "http://www.w3.org/Graphics/SVG/1.1/DTD/svg11.dtd">
<!-- Creator: CorelDRAW -->
<svg xmlns="http://www.w3.org/2000/svg" xml:space="preserve" width="6.82666in" height="6.82666in" style="shape-rendering:geometricPrecision; text-rendering:geometricPrecision; image-rendering:optimizeQuality; fill-rule:evenodd; clip-rule:evenodd"
viewBox="0 0 6.82666 6.82666"
 xmlns:xlink="http://www.w3.org/1999/xlink">
 <defs>
  <style type="text/css">
   <![CDATA[
    .fil0 {fill:#00838F}
    .fil1 {fill:#FFFFFE}
    .fil2 {fill:#FFFFFE;fill-rule:nonzero}
   ]]>
  </style>
 </defs>
 <g id="Layer_x0020_1">
  <metadata id="CorelCorpID_0Corel-Layer"/>
  <rect class="fil0" width="6.82666" height="6.82666" rx="0.853335" ry="0.853335"/>
  <g id="_470069856">
   <path id="_470070864" class="fil1" d="M5.97333 3.56911l0 0.794854c0,0.0589094 -0.0477598,0.106669 -0.106669,0.106669l-0.595087 0c-0.0119409,-0.111984 -0.0623937,-0.212469 -0.137858,-0.287933 -0.0868622,-0.0868622 -0.20687,-0.140598 -0.339406,-0.140598 -0.132535,0 -0.252543,0.0537362 -0.339406,0.140598 -0.0754646,0.0754646 -0.125917,0.175949 -0.137858,0.287933l-0.337268 0c-0.0589094,0 -0.106669,-0.0477598 -0.106669,-0.106669l0 -1.89795c0,-0.0589094 0.0477598,-0.106669 0.106669,-0.106669l1.21998 0c0.0406457,0 0.0759803,0.0227402 0.0939843,0.056185l0.664079 1.09747c0.00641339,-0.00394882 0.0155827,0.0492165 0.0155118,0.0561102zm-1.50346 -0.785583l0.539417 0 0.0472165 0 0.0227835 0.041563 0.283512 0.517201 0.0649213 0.118437 -0.134921 0 -0.822929 0 -0.08 0 0 -0.08 0 -0.517201 0 -0.08 0.08 0z"/>
   <path id="_470070840" class="fil2" d="M1.09978 1.93267l2.47356 0c0.0678858,0 0.129528,0.0276969 0.174138,0.072315 0.0446181,0.0446102 0.072315,0.106252 0.072315,0.174138l0 2.04646c0,0.0678858 -0.0276969,0.129528 -0.072315,0.174138 -0.0446102,0.0446181 -0.106252,0.072315 -0.174138,0.072315l-1.33592 0c-0.0116693,-0.112547 -0.0622323,-0.213555 -0.138012,-0.289335 -0.0868622,-0.0868622 -0.20687,-0.140598 -0.339406,-0.140598 -0.132535,0 -0.252543,0.0537362 -0.339406,0.140598 -0.0757795,0.0757795 -0.126343,0.176787 -0.138012,0.289335l-0.182803 0c-0.0678858,0 -0.129528,-0.0276969 -0.174138,-0.072315 -0.0446181,-0.0446102 -0.072315,-0.106252 -0.072315,-0.174138l0 -2.04646c0,-0.0678819 0.0276969,-0.12952 0.072311,-0.174142 0.044622,-0.0446142 0.10626,-0.072311 0.174142,-0.072311z"/>
   <path id="_470069832" class="fil2" d="M1.76 4.15021c0.102685,0 0.195661,0.0416339 0.262961,0.108929 0.0672953,0.0672992 0.108929,0.160276 0.108929,0.262961 0,0.102685 -0.0416339,0.195661 -0.108929,0.262961 -0.0672992,0.0672953 -0.160276,0.108929 -0.262961,0.108929 -0.102685,0 -0.195661,-0.0416339 -0.262961,-0.108929 -0.0672953,-0.0672992 -0.108929,-0.160276 -0.108929,-0.262961 0,-0.102685 0.0416339,-0.195661 0.108929,-0.262961 0.0672992,-0.0672953 0.160276,-0.108929 0.262961,-0.108929z"/>
   <path id="_470070072" class="fil2" d="M4.79431 4.15021c0.102685,0 0.195661,0.0416339 0.262961,0.108929 0.0672953,0.0672992 0.108929,0.160276 0.108929,0.262961 0,0.102685 -0.0416339,0.195661 -0.108929,0.262961 -0.0672992,0.0672953 -0.160276,0.108929 -0.262961,0.108929 -0.102685,0 -0.195661,-0.0416339 -0.262961,-0.108929 -0.0672953,-0.0672992 -0.108929,-0.160276 -0.108929,-0.262961 0,-0.102685 0.0416339,-0.195661 0.108929,-0.262961 0.0672992,-0.0672953 0.160276,-0.108929 0.262961,-0.108929z"/>
  </g>
 </g>
</svg>
